<?xml version="1.0" standalone="no"?>
<!DOCTYPE svg PUBLIC "-//W3C//DTD SVG 1.0//EN" "http://www.w3.org/TR/2001/REC-SVG-20010904/DTD/svg10.dtd">
<svg xmlns="http://www.w3.org/2000/svg" xmlns:xlink="http://www.w3.org/1999/xlink" id="body_1" width="512" height="384">

<g transform="matrix(0.5 0 0 0.5 0 0)">
    <path transform="matrix(1.398831 0 0 1.398831 331.9705 0)"  d="M5 491.97L5 329.97L157 377.97L157 545.97L5 491.97" stroke="none" fill="#FFFFFF" fill-rule="nonzero" />
    <path transform="matrix(1.398831 0 0 1.398831 331.9705 0)"  d="M8 492L8 330L4.2 332.89L137.2 374.89L156.2 380.89L154 378L154 546L157.8 543.1L24.48 495.71L5.8 489.07C 2.15 487.78 0.5800004 493.57 4.2 494.86L4.2 494.86L137.52 542.22L156.2 548.86C 157.0978 549.1085 158.06 548.9258 158.8042 548.3657C 159.5485 547.8055 159.9903 546.9315 160 546L160 546L160 378C 159.9743 376.6581 159.0853 375.4863 157.8 375.1L157.8 375.1L24.8 333.1L5.800003 327.1C 4.895509 326.8497 3.926016 327.0372 3.179971 327.6065C 2.433925 328.1758 1.9973 329.0615 2 330L2 330L2 492C 2 495.83 8 495.83 8 492z" stroke="none" fill="#1A1A1A" fill-rule="nonzero" />
    <path transform="matrix(1.398831 0 0 1.398831 331.9705 0)"  d="M157 377.97L242 315.97L242 484.97L157 545.97L157 377.97" stroke="none" fill="#FFFFFF" fill-rule="nonzero" />
    <path transform="matrix(1.398831 0 0 1.398831 331.9705 0)"  d="M158.51 380.56L232.85 326.34L243.51 318.56L239 316L239 485L240.49 482.41L166.28 535.66L155.49 543.41L160 546L160 378C 160 374.14 154 374.13 154 378L154 378L154 546C 154 548.11 156.61 549.95 158.51 548.59L158.51 548.59L203.04 516.59L232.72 495.29L241.33 489.11C 242.98 487.9301 244.6 487.11 245 484.95C 245.69 481.2 245 476.6801 245 472.89L245 472.89L245 316C 245 313.9 242.38 312 240.49 313.41L240.49 313.41L166.15 367.6L155.49 375.38C 152.4 377.63 155.39 382.84 158.51 380.56z" stroke="none" fill="#1A1A1A" fill-rule="nonzero" />
    <path transform="matrix(1.398831 0 0 1.398831 331.9705 0)"  d="M5 329.97L91 263.97L242 315.97L157 377.97L5 329.97" stroke="none" fill="#FFFFFF" fill-rule="nonzero" />
    <path transform="matrix(1.398831 0 0 1.398831 331.9705 0)"  d="M6.51 332.56L47.51 301.07L76.44 278.87L86.83 270.87C 87.9 270.05 91.66 268.1 92.14 266.79C 92.53 265.72 90.47 267.23 90.33 266.88C 90.41 267.08 91.57 267.29 91.76 267.38C 93.87 268.32 96.22 268.91 98.41 269.66L98.41 269.66L123.58 278.33L195.19 303L241.19 318.85L240.48 313.37L198.78 343.78L170.3 364.55L160 372.1C 159.61 372.39 155.56 374.83 155.61 375.31C 155.54 374.63 158.34 375.85 157.45 374.95C 156.8401 374.653 156.1898 374.4475 155.52 374.34L155.52 374.34L148.07 372L122.13 363.81L51.24 341.42L5.8 327.07C 2.11 325.91 0.5300002 331.7 4.2 332.86L4.2 332.86L114.2 367.61L142.71 376.61C 146.91 377.94 151.58 380.19 155.97 380.8C 159.73 381.32 164.22 376.37 166.97 374.33L166.97 374.33L193.7 354.83L243.43 318.56C 244.4355 317.9266 244.9816 316.7668 244.8292 315.5882C 244.6767 314.4096 243.8536 313.4268 242.72 313.07L242.72 313.07L132.21 275L104.05 265.3C 100.25 264 95.83 261.63 91.83 261.09C 87.83 260.55 82.60001 266.67 79.83 268.8L79.83 268.8L52.41 289.8L3.49 327.38C 0.46 329.69 3.45 334.91 6.51 332.56z" stroke="none" fill="#1A1A1A" fill-rule="nonzero" />
    <path transform="matrix(1.398831 0 0 1.398831 331.9705 0)"  d="M40 223.97L198 223.97L198 371.97L40 367.97L40 223.97" stroke="none" fill="#FFFFFF" fill-rule="nonzero" />
    <path transform="matrix(1.398831 0 0 1.398831 331.9705 0)"  d="M40 227L198 227L195 224L195 372L198 369L59.33 365.46L40 365L43 368L43 224C 43 220.14 37 220.13 37 224L37 224L37 368C 37.03192 369.6435 38.35655 370.9681 40 371L40 371L178.67 374.51L198 375C 199.6569 375 201 373.6569 201 372L201 372L201 224C 201 222.3431 199.6569 221 198 221L198 221L40 221C 36.14 221 36.13 227 40 227z" stroke="none" fill="#1A1A1A" fill-rule="nonzero" />
    <path transform="matrix(1.398831 0 0 1.398831 331.9705 0)"  d="M40 223.97L96 155.97L254 155.97L198 223.97L40 223.97" stroke="none" fill="#FFFFFF" fill-rule="nonzero" />
    <path transform="matrix(1.398831 0 0 1.398831 331.9705 0)"  d="M42.12 226.09L73.59 187.88L92.92999 164.39C 94.25999 162.78 96.92999 160.6 97.66999 158.63C 98.36999 156.86 96.66999 159.94 96.07999 158.97C 96.07999 159.06 97.07999 158.97 97.16999 158.97C 102.17 159.7 107.8 158.97 112.82 158.97L112.82 158.97L254 158.97L251.88 153.84L220.41 192.05L200.88 215.77C 199.69 217.22 196.88 219.55 196.27 221.37C 195.66 223.37 196.38 217.54 197.93 220.97C 197.5341 220.935 197.1359 220.935 196.74 220.97C 191.66 220.34 186.1 220.97 180.99 220.97L180.99 220.97L40 220.97C 36.14 220.97 36.13 226.97 40 226.97L40 226.97L195.14 226.97C 198.45 226.97 199.82 226.46 201.97 223.84L201.97 223.84L218.51 203.76L256.12 158.09C 257.71 156.16 256.78 152.97 254 152.97L254 152.97L98.88 152.97C 95.45 152.97 94.12 153.55 91.88 156.24L91.88 156.24L75.49 176.17L37.88 221.84C 35.44 224.8 39.66 229.07 42.12 226.09z" stroke="none" fill="#1A1A1A" fill-rule="nonzero" />
    <path transform="matrix(1.398831 0 0 1.398831 331.9705 0)"  d="M198 371.97L198 223.97L254 155.97L254 310.97L198 371.97" stroke="none" fill="#FFFFFF" fill-rule="nonzero" />
    <path transform="matrix(1.398831 0 0 1.398831 331.9705 0)"  d="M201 372L201 271.5C 201 256.39 201.86 240.99 201 225.9C 200.81 222.59 201.52 225.64 200.24 225.9C 201.24 225.65 203.24 222.26 203.87 221.49L203.87 221.49L220.93 200.77L256.12 158.04L251 156L251 306.4C 251 307.21 250.52 309.96 251 310.64C 251.6 311.48 251.26 308.99 251.78 308.98C 251.49 308.98 250.62 310.24 250.43 310.45L250.43 310.45L234.43 327.92L195.91 369.87C 193.3 372.72 197.53 376.97 200.15 374.12L200.15 374.12L233.5 337.79L252.66 316.92C 254.84 314.54 256.95 312.92 257.03 309.6C 257.93 272.24 257.03 234.74 257.03 197.37L257.03 197.37L257.03 156C 257.03 153.58 253.62 151.8 251.91 153.87L251.91 153.87L221.7 190.56L202.31 214.1C 200.1 216.79 195.59 220.54 195.03 224.1C 194.44 227.88 195.03 232.24 195.03 236.05L195.03 236.05L195.03 372C 195 375.83 201 375.83 201 372z" stroke="none" fill="#1A1A1A" fill-rule="nonzero" />
    <path transform="matrix(1.398831 0 0 1.398831 331.9705 0)"  d="M54 237.08L184 237.08L184 358.85L54 355.56L54 237.08" stroke="none" fill="#FFFFFF" fill-rule="nonzero" />
    <path transform="matrix(1.398831 0 0 1.398831 331.9705 0)"  d="M54 238.58L184 238.58L182.5 237.08L182.5 358.85L184 357.35L70 354.47L54 354.06L55.5 355.56L55.5 237.08C 55.5 236.2516 54.82843 235.58 54 235.58C 53.17157 235.58 52.5 236.2516 52.5 237.08L52.5 237.08L52.5 355.56C 52.51077 356.3839 53.17607 357.0492 54 357.06L54 357.06L168 360L184 360.4C 184.8239 360.3892 185.4892 359.7239 185.5 358.9L185.5 358.9L185.5 237.08C 185.4892 236.2561 184.8239 235.5908 184 235.58L184 235.58L54 235.58C 53.17157 235.58 52.5 236.2516 52.5 237.08C 52.5 237.9084 53.17157 238.58 54 238.58z" stroke="none" fill="#1A1A1A" fill-rule="nonzero" />
    <path transform="matrix(1.398831 0 0 1.398831 331.9705 0)"  d="M108 83.97L108 231.97L244 185.97L244 37.97L108 83.97" stroke="none" fill="#FFFFFF" fill-rule="nonzero" />
    <path transform="matrix(1.398831 0 0 1.398831 331.9705 0)"  d="M105 84L105 232C 105.0004 232.9367 105.4384 233.8195 106.184 234.3865C 106.9295 234.9536 107.8972 235.1398 108.8 234.89L108.8 234.89L228 194.55L244.84 188.86C 246.0958 188.4642 246.9629 187.3162 247 186L247 186L247 38C 247.0027 37.06152 246.5661 36.17586 245.82 35.60651C 245.074 35.03716 244.1045 34.84973 243.2 35.1L243.2 35.1L124 75.38L107.2 81.07C 103.56 82.3 105.13 88.07 108.8 86.86L108.8 86.86L228 46.55L244.84 40.86L241 38L241 186L243.2 183.1L124 223.38L107.16 229.07L111 232L111 84C 111 80.11 105 80.1 105 84z" stroke="none" fill="#1A1A1A" fill-rule="nonzero" />
    <path transform="matrix(1.398831 0 0 1.398831 331.9705 0)"  d="M108 83.97L3 47.97L126 2.97L244 37.97L108 83.97" stroke="none" fill="#FFFFFF" fill-rule="nonzero" />
    <path transform="matrix(1.398831 0 0 1.398831 331.9705 0)"  d="M108.8 81.07L17 49.59L3.8 45.07L3.8 50.86L108.45 12.57C 114 10.57 120.45 9.049999 125.69 6.26C 127.62 5.26 124.84 5.42 125.93 6.07C 127.56 7.07 130.2 7.34 132.01 7.88L132.01 7.88L192.31 25.76L243.2 40.86L243.2 35.07L124 75.38L107.2 81.07C 103.56 82.3 105.13 88.07 108.8 86.86L108.8 86.86L228 46.55L244.84 40.86C 246.1465 40.50495 247.0533 39.31886 247.0533 37.965C 247.0533 36.61115 246.1465 35.42505 244.84 35.07L244.84 35.07L137.87 3.36C 134.33 2.31 129 -0.49 125.2 0.07C 121.4 0.63 116.94 3.07 113.2 4.45L113.2 4.45L50.2 27.51L2.2 45.07C 0.8935289 45.42505 -0.01325202 46.61115 -0.01325202 47.965C -0.01325202 49.31886 0.8935289 50.50495 2.2 50.86L2.2 50.86L94 82.34L107.18 86.85999C 110.86 88.11 112.43 82.32 108.8 81.07z" stroke="none" fill="#1A1A1A" fill-rule="nonzero" />
    <path transform="matrix(1.398831 0 0 1.398831 331.9705 0)"  d="M108 83.97L108 231.97L3 191.97L3 47.97L108 83.97" stroke="none" fill="#FFFFFF" fill-rule="nonzero" />
    <path transform="matrix(1.398831 0 0 1.398831 331.9705 0)"  d="M105 84L105 232L108.8 229.1L16.69 194L3.8 189.07L6 192L6 48L2.2 50.86L94 82.34L107.18 86.85999C 110.84 88.10999 112.41 82.31999 108.78 81.06999L108.78 81.06999L17 49.59L3.8 45.07C 2.890388 44.81824 1.915328 45.00921 1.1679 45.58552C 0.4204714 46.16182 -0.01217651 47.05627 0 48L0 48L0 192C 0.03312063 193.3371 0.9200194 194.5021 2.2 194.89L2.2 194.89L94.31 230L107.2 234.91C 109.06 235.62 111 233.81 111 232.02L111 232.02L111 84C 111 80.11 105 80.1 105 84z" stroke="none" fill="#1A1A1A" fill-rule="nonzero" />
    <path transform="matrix(1.398831 0 0 1.398831 331.9705 0)"  d="M123.29 134.37C 123.29 142.28 131.01 149.66 143.19 153.82C 140.75 166.06 142.75 175.92 149.42 179.82C 156.27 183.77 166.47 181.03 176.16 172.57C 185.6 180.69 195.16 183.89 201.8 180.04C 208.64 176.04 210.73 165.54 208.23 152.92C 220.91 148.73 228 142.43 228 134.42C 228 126.7 220.26 120.01 208.25 115.88C 210.94 102.74 208.67 93.11 201.72 89.11C 195.03 85.25 185.38 88.62 175.8 96.95C 165.8 88.1 156.27 85.39999 149.34 89.42C 142.65 93.28 140.75 103.33 143.19 115.79C 131.42 119.84 123.29 126.68 123.29 134.37z" stroke="none" fill="#FFFFFF" fill-rule="nonzero" />
    <path transform="matrix(1.398831 0 0 1.398831 331.9705 0)"  d="M205.71 119.94C 204.71 119.6 203.71 119.28 202.71 118.94C 202.87 118.26 203.03 117.58 203.17 116.94C 205.44 105.94 203.95 97.08 198.89 94.16C 194.04 91.36 186.11 94.28001 178.1 101.25C 177.31 101.94 176.54 102.65 175.78 103.38C 175.28 102.9 174.78 102.38 174.24 101.96C 165.84 94.5 157.43 91.36 152.37 94.28C 147.53 97.09 146.09 105.42 148.13 115.84C 148.33 116.84 148.56 117.9 148.82 118.92C 147.63 119.26 146.48 119.62 145.38 120.01C 135.53 123.44 129.24 128.82 129.24 134.4C 129.24 140.16 135.99 145.94 146.24 149.45C 147.07 149.73 147.91 149.99 148.75 150.23C 148.48 151.33 148.23 152.44 148.02 153.55C 146.08 163.8 147.6 171.93 152.43 174.72C 157.43 177.6 165.8 174.64 173.96 167.51C 174.61 166.94 175.25 166.34 175.9 165.72C 176.72 166.51 177.56 167.27 178.41 168.01C 186.32 174.81 194.12 177.56 198.95 174.76C 203.95 171.87 205.56 163.14 203.46 152.51C 203.3 151.69 203.11 150.87 202.9 150.02C 203.49 149.85 204.06 149.67 204.63 149.48C 215.29 145.95 222.22 140.24 222.22 134.4C 222.22 128.8 215.73 123.4 205.69 119.93L205.69 119.93L205.71 119.94z" stroke="none" fill="#333333" fill-rule="nonzero" />
    <path transform="matrix(1.398831 0 0 1.398831 331.9705 0)"  d="M203.4 145.72L201.84 146.21C 200.5377 142.1815 198.9641 138.2458 197.13 134.43C 198.8928 130.6647 200.4028 126.7861 201.65 122.82C 202.6 123.1 203.53 123.39 204.42 123.69C 213.02 126.69 218.27 131.03 218.27 134.41C 218.27 138 212.6 142.67 203.4 145.72zM199.58 153.29C 200.4781 157.3182 200.6306 161.4769 200.03 165.56C 199.47 168.56 198.36 170.56 196.98 171.33C 194.05 173.03 187.78 170.83 181.03 165.01C 180.25 164.3434 179.47 163.6333 178.69 162.88C 181.5072 159.7598 184.1099 156.4521 186.48 152.98C 190.7193 152.6219 194.9292 151.9737 199.08 151.04C 199.27 151.8 199.43 152.55 199.58 153.29zM161 171C 158.13 172 155.85 172 154.47 171.25C 151.54 169.56 150.32 163.02 151.98 154.25C 152.18 153.25 152.41 152.19 152.66 151.17C 156.7803 152.0626 160.9567 152.674 165.16 153C 167.6044 156.4609 170.277 159.7549 173.16 162.86C 172.58 163.42 171.99 163.97 171.39 164.49C 168.3561 167.28 164.8339 169.4868 161 171zM147.54 145.7C 143.6049 144.459 139.9307 142.5067 136.7 139.94C 134.39 137.94 133.23 136 133.23 134.41C 133.23 131.02 138.23 126.7 146.69 123.77C 147.75 123.4 148.82 123.07 149.89 122.77C 151.1426 126.7825 152.6592 130.7077 154.43 134.52C 152.6354 138.3828 151.1019 142.3619 149.84 146.43C 149.07 146.2 148.3 146 147.54 145.7zM152.04 115.09C 150.29 106.16 151.45 99.42 154.37 97.73C 157.48 95.92999 164.37 98.49999 171.61 104.94C 172.08 105.35 172.54 105.78 173.01 106.22C 170.1586 109.3136 167.513 112.5905 165.09 116.03C 160.9142 116.411 156.7685 117.0691 152.68 118C 152.44 117.05 152.23 116.09 152.04 115.13zM192.15 125C 191.2433 123.4333 190.3 121.8833 189.32 120.35C 192.1696 120.7011 194.9999 121.1951 197.8 121.83C 197 124.4 196 127.08 194.8 129.83C 193.94 128.19 193.04 126.58 192.12 124.99zM175.79 109.06C 177.63 111.06 179.46 113.27 181.27 115.67C 177.6 115.5 173.94 115.5 170.27 115.67C 172.08 113.29 173.93 111.07 175.79 109.06zM159.33 125.06C 158.42 126.65 157.54 128.25 156.71 129.87C 155.55 127.13 154.56 124.43 153.71 121.87C 156.36 121.27 159.19 120.79 162.14 120.42C 161.18 121.9067 160.2433 123.4333 159.33 125zM162.27 148.8C 159.3914 148.4888 156.5308 148.0282 153.7 147.42C 154.52 144.77 155.53 142.02 156.7 139.22C 157.54 140.84 158.42 142.4433 159.34 144.03C 160.28 145.6 161.26 147.19 162.27 148.76zM175.9 160C 174.02 158 172.14 155.73 170.31 153.31C 172.09 153.38 173.9 153.41 175.75 153.41C 177.6 153.41 179.52 153.41 181.36 153.29C 179.6569 155.6194 177.8345 157.859 175.9 160zM194.9 139C 196.0816 141.6717 197.1263 144.4019 198.03 147.18C 195.1645 147.8252 192.2674 148.3192 189.35 148.66C 190.35 147.1 191.29 145.53 192.21 143.93C 193.13 142.33 194.04 140.66 194.9 139zM188.73 142C 187.3233 144.44 185.8333 146.8367 184.26 149.19C 181.51 149.39 178.65 149.49 175.75 149.49C 172.85 149.49 170.04 149.4 167.33 149.23C 165.72 146.88 164.21 144.48 162.78 142.02C 161.35 139.56 160.04 137.07 158.78 134.52C 160 131.98 161.3333 129.4833 162.78 127.03C 164.19 124.58 165.7 122.19 167.29 119.85C 170.06 119.64 172.89 119.53 175.76 119.53C 178.63 119.53 181.48 119.64 184.24 119.85C 185.82 122.1767 187.3133 124.5633 188.72 127.01C 190.1266 129.4567 191.46 131.9434 192.72 134.47C 191.48 137.0233 190.1467 139.5334 188.72 142zM196.92 97.63C 200.03 99.43001 201.25 106.63 199.29 116.17C 199.16 116.79 199.02 117.4 198.87 118.02C 194.7754 117.0794 190.623 116.4113 186.44 116.02C 184.0384 112.5809 181.4127 109.3037 178.58 106.21C 179.27 105.54 179.99 104.89 180.72 104.21C 187.58 98.21001 194 95.88 196.92 97.56001z" stroke="none" fill="#FFFFFF" fill-rule="nonzero" />
    <path transform="matrix(1.398831 0 0 1.398831 331.9705 0)"  d="M175.75 126.11C 180.334 126.11 184.05 129.826 184.05 134.41C 184.05 138.994 180.334 142.71 175.75 142.71C 171.166 142.71 167.45 138.994 167.45 134.41C 167.4474 132.2079 168.321 130.0952 169.8781 128.5381C 171.4352 126.981 173.5479 126.1074 175.75 126.11" stroke="none" fill="#333333" fill-rule="nonzero" />
    <path transform="matrix(1.398831 0 0 1.398831 331.9705 0)"  d="M147 311.51L147 332.84C 147.064 334.7548 146.886 336.6699 146.47 338.54C 146.1599 339.8712 145.5359 341.109 144.65 342.15C 143.0097 344.0894 140.5683 345.1663 138.03 345.07C 135.9748 345.0751 133.9579 344.5147 132.2 343.45L132.2 343.45L134.64 339.2C 135.6243 339.9333 136.8041 340.3578 138.03 340.42C 139.3052 340.5375 140.524 339.8687 141.11 338.73C 141.71 337.61 142 335.64 142 332.84L142 332.84L142 311.51L147 311.51z" stroke="none" fill="#000000" fill-rule="nonzero" />
    <path transform="matrix(1.398831 0 0 1.398831 331.9705 0)"  d="M173.54 316.42L169.54 318.81C 169.0378 317.7945 168.2966 316.916 167.38 316.25C 166.5491 315.7595 165.594 315.5199 164.63 315.56C 163.3771 315.5163 162.1522 315.9365 161.19 316.74C 160.3103 317.4435 159.8047 318.5137 159.82 319.64C 159.82 321.2534 161.0167 322.55 163.41 323.53L163.41 323.53L166.7 324.87C 168.9647 325.683 170.985 327.0596 172.57 328.87C 173.8387 330.505 174.4966 332.5317 174.43 334.6C 174.532 337.4141 173.4427 340.1407 171.43 342.11C 169.4188 344.1029 166.6802 345.1868 163.85 345.11C 161.2506 345.2086 158.7138 344.2985 156.77 342.57C 154.822 340.6626 153.6047 338.1325 153.33 335.42L153.33 335.42L158.33 334.3101C 158.386 335.7219 158.7951 337.0972 159.52 338.3101C 160.5119 339.5541 161.9802 340.3251 163.5675 340.4354C 165.1548 340.5456 166.7156 339.985 167.87 338.89C 168.9023 337.8397 169.459 336.412 169.41 334.94C 169.4169 334.3426 169.3257 333.748 169.14 333.18C 168.9632 332.64 168.681 332.1404 168.31 331.71C 167.8855 331.2229 167.3939 330.7986 166.85 330.45C 166.1715 330.0108 165.4553 329.6326 164.71 329.32L164.71 329.32L161.5 328C 156.9933 326.0867 154.7367 323.2967 154.73 319.63C 154.6913 317.2375 155.7349 314.9555 157.57 313.42C 159.5238 311.7172 162.0496 310.8169 164.64 310.9C 168.44 310.88 171.4067 312.72 173.54 316.42z" stroke="none" fill="#000000" fill-rule="nonzero" />
</g>
</svg>